<?xml version="1.0" encoding="UTF-8" standalone="no"?>
<svg
   xmlns:dc="http://purl.org/dc/elements/1.1/"
   xmlns:cc="http://creativecommons.org/ns#"
   xmlns:rdf="http://www.w3.org/1999/02/22-rdf-syntax-ns#"
   xmlns:svg="http://www.w3.org/2000/svg"
   xmlns="http://www.w3.org/2000/svg"
   id="svg8"
   version="1.1"
   viewBox="0 0 7.6543864 7.6543864"
   height="7.6543865mm"
   width="7.6543865mm">
  <defs
     id="defs2" />
  <metadata
     id="metadata5">
    <rdf:RDF>
      <cc:Work
         rdf:about="">
        <dc:format>image/svg+xml</dc:format>
        <dc:type
           rdf:resource="http://purl.org/dc/dcmitype/StillImage" />
        <dc:title></dc:title>
      </cc:Work>
    </rdf:RDF>
  </metadata>
  <g
     transform="translate(-78.008998,-141.11124)"
     id="layer1">
    <g
       id="g953"
       transform="matrix(0.18580091,0,0,0.18580091,-318.29759,38.589236)">
      <path
         d="m 2174.1604,572.38257 a 20.598356,20.598356 0 0 1 -20.5554,20.59831 20.598356,20.598356 0 0 1 -20.6412,-20.51239 20.598356,20.598356 0 0 1 20.4693,-20.68387 20.598356,20.598356 0 0 1 20.7266,20.4261"
         id="path959-6-7-1-1"
         style="opacity:1;fill:#ffffff;fill-opacity:1;stroke:none;stroke-width:0.24551478;stroke-linecap:round;stroke-linejoin:miter;stroke-miterlimit:4;stroke-dasharray:none;stroke-dashoffset:0;stroke-opacity:1;paint-order:stroke fill markers" />
      <path
         style="opacity:1;fill:#ff4c4c;fill-opacity:1;stroke:none;stroke-width:0.75448656;stroke-linecap:round;stroke-linejoin:miter;stroke-miterlimit:4;stroke-dasharray:none;stroke-dashoffset:0;stroke-opacity:1;paint-order:stroke fill markers"
         d="m 2153.4778,558.89245 a 13.490252,13.490252 0 0 0 -13.4057,13.54468 13.490252,13.490252 0 0 0 13.5196,13.43587 13.490252,13.490252 0 0 0 13.4603,-13.49022 v -0.11388 a 13.490252,13.490252 0 0 0 -13.5742,-13.37654 z m -5.954,8.3622 h 12.2297 0.01 c 0.2488,0 0.2297,0.1445 0,0.30144 l -5.9043,5.01932 c -0.2201,0.16651 -0.4689,0.20191 -0.6411,0.0287 l -5.7063,-4.87588 c -0.2966,-0.28708 -0.2201,-0.47463 0,-0.47463 z m -0.7368,0.49474 c 0.096,-0.002 0.1818,0.0574 0.3253,0.19809 l 4.0556,3.47645 c 0.2201,0.23254 0.1818,0.34737 0,0.66794 l -4.0805,4.7621 c -0.1722,0.21244 -0.354,0.26985 -0.4306,-0.0479 v -8.86163 c 0,-0.12918 0,-0.19616 0.1053,-0.19808 z m 13.5598,0 c 0.096,0.002 0.1052,0.067 0.1052,0.19809 v 8.86161 c -0.096,0.31386 -0.2679,0.25645 -0.4305,0.0479 l -4.0795,-4.7621 c -0.1818,-0.32057 -0.2201,-0.43541 0,-0.66794 l 4.0546,-3.47635 c 0.1434,-0.13686 0.2487,-0.20001 0.3254,-0.19809 z m -8.5053,4.44564 c 0.096,0.01 0.1053,0.0478 0.1531,0.11387 1.8364,1.45627 1.4336,1.18727 3.066,0.01 0.1723,-0.17128 0.2393,-0.12727 0.402,0.0383 l 4.3167,4.84621 c 0.2201,0.15694 0.2297,0.30143 0,0.30143 l -0.01,0.01 h -12.2296 c -0.2201,0 -0.2966,-0.19234 0,-0.47942 l 4.1445,-4.77703 c 0.096,-0.0574 0.1148,-0.0765 0.1627,-0.067 z"
         id="path1026-2" />
    </g>
  </g>
</svg>
