<?xml version="1.0" encoding="UTF-8" standalone="no"?>
<svg
   xmlns:dc="http://purl.org/dc/elements/1.1/"
   xmlns:cc="http://creativecommons.org/ns#"
   xmlns:rdf="http://www.w3.org/1999/02/22-rdf-syntax-ns#"
   xmlns:svg="http://www.w3.org/2000/svg"
   xmlns="http://www.w3.org/2000/svg"
   id="svg8"
   version="1.1"
   viewBox="0 0 2.5831108 2.5834153"
   height="2.5834153mm"
   width="2.5831108mm">
  <defs
     id="defs2" />
  <metadata
     id="metadata5">
    <rdf:RDF>
      <cc:Work
         rdf:about="">
        <dc:format>image/svg+xml</dc:format>
        <dc:type
           rdf:resource="http://purl.org/dc/dcmitype/StillImage" />
        <dc:title></dc:title>
      </cc:Work>
    </rdf:RDF>
  </metadata>
  <g
     transform="translate(-95.470349,-121.83925)"
     id="layer1">
    <path
       id="path965"
       d="m 96.75356,121.83956 a 1.2915429,1.2915429 0 0 0 -1.2832,1.29681 1.2915429,1.2915429 0 0 0 1.29371,1.28629 1.2915429,1.2915429 0 0 0 1.28939,-1.29186 l -6.3e-4,-0.0108 a 1.2915429,1.2915429 0 0 0 -1.29927,-1.28073 z m 0.0828,0.52158 h 0.28707 v 0.26727 h -0.16828 c -0.0495,6e-4 -0.0665,0.0259 -0.0736,0.0594 v 0.17138 h 0.2382 l -0.0143,0.27657 h -0.22026 v 0.78019 h -0.31493 v -0.78019 h -0.16643 v -0.26604 h 0.16457 v -0.23821 c -0.007,-0.16255 0.12299,-0.26318 0.26791,-0.27037 z"
       style="opacity:1;fill:#ffffff;fill-opacity:1;stroke:none;stroke-width:0.0125972;stroke-linecap:square;stroke-linejoin:miter;stroke-miterlimit:4;stroke-dasharray:none;stroke-dashoffset:0;stroke-opacity:1;paint-order:stroke fill markers" />
  </g>
</svg>
