<?xml version="1.0" encoding="UTF-8" standalone="no"?>
<svg
   xmlns:dc="http://purl.org/dc/elements/1.1/"
   xmlns:cc="http://creativecommons.org/ns#"
   xmlns:rdf="http://www.w3.org/1999/02/22-rdf-syntax-ns#"
   xmlns:svg="http://www.w3.org/2000/svg"
   xmlns="http://www.w3.org/2000/svg"
   id="svg8"
   version="1.1"
   viewBox="0 0 2.7833025 2.78282"
   height="2.78282mm"
   width="2.7833025mm">
  <defs
     id="defs2" />
  <metadata
     id="metadata5">
    <rdf:RDF>
      <cc:Work
         rdf:about="">
        <dc:format>image/svg+xml</dc:format>
        <dc:type
           rdf:resource="http://purl.org/dc/dcmitype/StillImage" />
        <dc:title></dc:title>
      </cc:Work>
    </rdf:RDF>
  </metadata>
  <g
     transform="translate(-95.289403,-121.61974)"
     id="layer1">
    <path
       id="path989"
       d="m 96.672275,121.61978 a 1.3914719,1.3914719 0 0 0 -1.38286,1.39733 1.3914719,1.3914719 0 0 0 1.39475,1.38545 1.3914719,1.3914719 0 0 0 1.38854,-1.39113 l -5.02e-4,-0.0119 a 1.3914719,1.3914719 0 0 0 -1.399928,-1.37976 z m -0.48214,0.61702 a 0.17247237,0.17247237 0 0 1 0.17363,0.17105 v 0.001 a 0.17247237,0.17247237 0 0 1 -0.17208,0.1726 0.17247237,0.17247237 0 0 1 -0.1726,-0.17157 0.17247237,0.17247237 0 0 1 0.17105,-0.17311 z m 0.84853,0.43976 c 0.2225,-0.0377 0.3731,0.19681 0.3731,0.26769 v 0.68678 h -0.28939 v -0.54984 c -0.007,-0.19503 -0.29531,-0.19627 -0.32711,0 v 0.54984 h -0.28112 v -0.93224 h 0.28112 v 0.12247 c 0.0872,-0.0891 0.16923,-0.13212 0.2434,-0.1447 z m -0.99219,0.0248 h 0.28939 v 0.92656 h -0.28939 z"
       style="opacity:1;fill:#ffffff;fill-opacity:1;stroke:none;stroke-width:0.01017094;stroke-linecap:square;stroke-linejoin:miter;stroke-miterlimit:4;stroke-dasharray:none;stroke-dashoffset:0;stroke-opacity:1;paint-order:stroke fill markers" />
  </g>
</svg>
