<?xml version="1.0" encoding="UTF-8" standalone="no"?>
<svg
   xmlns:dc="http://purl.org/dc/elements/1.1/"
   xmlns:cc="http://creativecommons.org/ns#"
   xmlns:rdf="http://www.w3.org/1999/02/22-rdf-syntax-ns#"
   xmlns:svg="http://www.w3.org/2000/svg"
   xmlns="http://www.w3.org/2000/svg"
   id="svg8"
   version="1.1"
   viewBox="0 0 7.7212037 7.7212037"
   height="7.7212038mm"
   width="7.7212038mm">
  <defs
     id="defs2" />
  <metadata
     id="metadata5">
    <rdf:RDF>
      <cc:Work
         rdf:about="">
        <dc:format>image/svg+xml</dc:format>
        <dc:type
           rdf:resource="http://purl.org/dc/dcmitype/StillImage" />
        <dc:title></dc:title>
      </cc:Work>
    </rdf:RDF>
  </metadata>
  <g
     transform="translate(-78.027586,-141.15946)"
     id="layer1">
    <g
       transform="matrix(0.18742282,0,0,0.18742282,-311.31894,37.569418)"
       id="g933">
      <path
         style="opacity:1;fill:#ffffff;fill-opacity:1;stroke:none;stroke-width:0.24551478;stroke-linecap:round;stroke-linejoin:miter;stroke-miterlimit:4;stroke-dasharray:none;stroke-dashoffset:0;stroke-opacity:1;paint-order:stroke fill markers"
         id="path959-6-7-1"
         d="m 2118.5666,573.30609 a 20.598356,20.598356 0 0 1 -20.5554,20.59831 20.598356,20.598356 0 0 1 -20.6411,-20.51239 20.598356,20.598356 0 0 1 20.4693,-20.68387 20.598356,20.598356 0 0 1 20.7265,20.42611" />
      <path
         style="opacity:1;fill:#009c6e;fill-opacity:1;stroke:none;stroke-width:0.77233183;stroke-linecap:round;stroke-linejoin:miter;stroke-miterlimit:4;stroke-dasharray:none;stroke-dashoffset:0;stroke-opacity:1;paint-order:stroke fill markers"
         d="m 2097.8833,559.81629 a 13.48992,13.48992 0 0 0 -13.4049,13.54528 13.48992,13.48992 0 0 0 13.5157,13.43474 13.48992,13.48992 0 0 0 13.4642,-13.49001 l -0.01,-0.11557 a 13.48992,13.48992 0 0 0 -13.57,-13.37464 z m 0.5439,6.2532 v 0.006 a 0.38850343,0.38850343 0 0 1 0.1068,0 c 3.3525,0.58076 5.7406,2.84492 6.6399,6.63965 a 0.38850343,0.38850343 0 0 1 -0.097,0.32145 0.38850343,0.38850343 0 0 1 -0.097,0.0583 0.38850343,0.38850343 0 0 1 -0.097,0.0583 0.38850343,0.38850343 0 0 1 -0.3107,0.0194 0.38850343,0.38850343 0 0 1 -0.097,-0.0583 0.38850343,0.38850343 0 0 1 -0.097,-0.0583 0.38850343,0.38850343 0 0 1 -0.097,-0.17092 c -0.8449,-3.56922 -2.9416,-5.49727 -6.0328,-6.03238 a 0.38850343,0.38850343 0 0 1 -0.1748,-0.0776 0.38850343,0.38850343 0 0 1 -0.097,-0.0583 0.38850343,0.38850343 0 0 1 -0.097,-0.10004 0.38850343,0.38850343 0 0 1 0,-0.30106 0.38850343,0.38850343 0 0 1 0.1554,-0.17092 0.38850343,0.38850343 0 0 1 0.1652,-0.0778 z m -5.4754,1.40023 c 0.097,-0.0291 0.204,-0.0291 0.3108,0 0.1457,0.0389 0.3108,0.13887 0.5341,0.2962 l 1.7714,1.74644 c 0.3206,0.36613 0.2428,0.9663 0,1.2898 l -1.1993,1.24463 c -0.097,0.17191 -0.1069,0.41761 0.1165,0.65749 l 3.805,3.99486 c 0.1942,0.1418 0.4078,0.23503 0.7187,0 l 1.1139,-1.11421 c 0.437,-0.23016 0.8934,-0.40691 1.551,0 l 2.0015,2.00244 c 0.2525,0.38362 0.4273,0.78568 0,1.31991 l -1.5753,1.57084 c -3.4602,2.45511 -13.0951,-8.64566 -11.2517,-11.25177 l 0.7768,-0.70214 c 0.6992,-0.5963 1.0256,-0.96145 1.3295,-1.05391 z m 5.3599,1.28971 v 0.01 a 0.38850343,0.38850343 0 0 1 0.097,0.0194 c 1.1654,0.16899 2.0841,0.66233 2.7503,1.38517 0.6701,0.72157 1.0974,1.65 1.3859,2.69497 a 0.38850343,0.38850343 0 0 1 -0.2137,0.45159 0.38850343,0.38850343 0 0 1 -0.3011,0.0194 0.38850343,0.38850343 0 0 1 -0.1359,-0.0776 0.38850343,0.38850343 0 0 1 -0.097,-0.10003 0.38850343,0.38850343 0 0 1 0,-0.0971 c -0.272,-0.96825 -0.641,-1.79072 -1.1946,-2.38896 -0.5535,-0.59824 -1.2858,-0.99263 -2.2987,-1.13926 a 0.38850343,0.38850343 0 0 1 -0.2234,-0.11557 0.38850343,0.38850343 0 0 1 -0.097,-0.472 0.38850343,0.38850343 0 0 1 0.097,-0.0583 0.38850343,0.38850343 0 0 1 0.097,-0.0583 0.38850343,0.38850343 0 0 1 0.204,-0.0777 z"
         id="path990-6" />
    </g>
  </g>
</svg>
