<?xml version="1.0" encoding="UTF-8" standalone="no"?>
<svg
   xmlns:dc="http://purl.org/dc/elements/1.1/"
   xmlns:cc="http://creativecommons.org/ns#"
   xmlns:rdf="http://www.w3.org/1999/02/22-rdf-syntax-ns#"
   xmlns:svg="http://www.w3.org/2000/svg"
   xmlns="http://www.w3.org/2000/svg"
   id="svg8"
   version="1.1"
   viewBox="0 0 7.8109498 7.8109498"
   height="7.8109498mm"
   width="7.8109498mm">
  <defs
     id="defs2">
    <clipPath
       id="clipPath994-8-8"
       clipPathUnits="userSpaceOnUse">
      <path
         style="fill:#83470e;fill-opacity:1;stroke:none;stroke-width:0.05;stroke-linecap:butt;stroke-linejoin:miter;stroke-miterlimit:4;stroke-dasharray:none;stroke-opacity:1"
         d="m 137.06656,136.6377 h 2.07533 c 0.0683,-0.005 0.12311,0.0114 0.1448,0.0836 v 1.70234 h -1.98862 c -0.23494,-0.009 -0.35871,-0.13886 -0.3638,-0.26872 v -1.40146 c 0.005,-0.0796 0.0506,-0.11608 0.13229,-0.11576 z"
         id="path996-8-3" />
    </clipPath>
  </defs>
  <metadata
     id="metadata5">
    <rdf:RDF>
      <cc:Work
         rdf:about="">
        <dc:format>image/svg+xml</dc:format>
        <dc:type
           rdf:resource="http://purl.org/dc/dcmitype/StillImage" />
        <dc:title></dc:title>
      </cc:Work>
    </rdf:RDF>
  </metadata>
  <g
     transform="translate(-100.64732,-141.69798)"
     id="layer1">
    <g
       id="g2112"
       transform="matrix(0.18960129,0,0,0.18960129,-204.85195,36.529921)">
      <path
         style="opacity:1;fill:#ffffff;fill-opacity:1;stroke:none;stroke-width:0.24551478;stroke-linecap:round;stroke-linejoin:miter;stroke-miterlimit:4;stroke-dasharray:none;stroke-dashoffset:0;stroke-opacity:1;paint-order:stroke fill markers"
         id="path3457-0"
         d="m 1652.4688,575.27844 a 20.598356,20.598356 0 0 1 -20.5554,20.59831 20.598356,20.598356 0 0 1 -20.6411,-20.51238 20.598356,20.598356 0 0 1 20.4693,-20.68388 20.598356,20.598356 0 0 1 20.7265,20.42611" />
      <g
         transform="matrix(7.2269394,0,0,7.2269394,630.71119,-420.0545)"
         id="g1021-3-5">
        <path
           id="path969-3-0"
           d="m 137.06656,136.6377 h 2.07533 c 0.0683,-0.005 0.12311,0.0114 0.1448,0.0836 v 1.70234 h -1.98862 c -0.23494,-0.009 -0.35871,-0.13886 -0.3638,-0.26872 v -1.40146 c 0.005,-0.0796 0.0506,-0.11608 0.13229,-0.11576 z"
           style="fill:#d27217;fill-opacity:1;stroke:none;stroke-width:0.05;stroke-linecap:butt;stroke-linejoin:miter;stroke-miterlimit:4;stroke-dasharray:none;stroke-opacity:1" />
        <path
           id="path988-5-0"
           d="M 137.50432,136.72932 V 136.475 c 0.002,-0.16061 0.0897,-0.22286 0.21633,-0.23971 h 0.78635 c 0.094,-7.8e-4 0.18114,0.0215 0.22509,0.19001 v 0.3771 h -0.17832 v -0.32448 c 7.3e-4,-0.0644 -0.0324,-0.0712 -0.0701,-0.0702 h -0.74544 c -0.0422,-0.003 -0.0726,0.0134 -0.076,0.076 v 0.2514 z"
           style="fill:#7b430e;fill-opacity:1;stroke:none;stroke-width:0.05;stroke-linecap:butt;stroke-linejoin:miter;stroke-miterlimit:4;stroke-dasharray:none;stroke-opacity:1" />
        <path
           clip-path="url(#clipPath994-8-8)"
           id="path979-3-5"
           d="m 136.79124,136.88469 c 0.15458,0.27844 0.15316,0.64194 0.69073,0.64194 h 1.195 c 0.34367,0 0.64318,-0.0413 0.74159,-0.82098 l 0.0131,-0.26846 -2.70877,0.0247 z"
           style="fill:#a25812;fill-opacity:1;stroke:none;stroke-width:0.05202783;stroke-linecap:butt;stroke-linejoin:miter;stroke-miterlimit:4;stroke-dasharray:none;stroke-opacity:1" />
        <rect
           style="opacity:1;fill:#f5dd28;fill-opacity:1;stroke:none;stroke-width:0.05824386;stroke-linecap:round;stroke-linejoin:round;stroke-miterlimit:4;stroke-dasharray:none;stroke-dashoffset:0;stroke-opacity:1;paint-order:stroke fill markers"
           id="rect975-2-0"
           width="0.31863537"
           height="0.53495663"
           x="138.61809"
           y="137.2292"
           ry="0.076065488" />
        <g
           id="g937-4-4-5"
           transform="matrix(0.4845604,0,0,0.4845604,75.000753,71.824357)">
          <path
             style="fill:#2e2e2e;fill-opacity:1;stroke:none;stroke-width:0.05;stroke-linecap:butt;stroke-linejoin:miter;stroke-miterlimit:4;stroke-dasharray:none;stroke-opacity:1"
             d="m 131.16669,137.28475 v 1.11668 c 0.66119,0.78998 1.78052,0.82639 2.47892,0 v -1.12253 z"
             id="path913-9-4-6" />
          <path
             style="fill:#515151;fill-opacity:1;stroke:none;stroke-width:0.05282265;stroke-linecap:butt;stroke-linejoin:miter;stroke-miterlimit:4;stroke-dasharray:none;stroke-opacity:1"
             d="m 132.78972,136.22816 c -0.22677,-0.12073 -0.47546,-0.15273 -0.77207,0 l -1.56267,0.74736 c -0.10652,0.0615 -0.083,0.13733 0,0.1853 l 1.61826,0.76589 c 0.24917,0.13321 0.47751,0.11697 0.69178,0 l 1.54414,-0.75353 c 0.11501,-0.0624 0.14408,-0.14535 0,-0.22854 z"
             id="path911-1-9-8" />
          <path
             style="opacity:1;fill:#2e2e2e;fill-opacity:1;stroke:none;stroke-width:0.06385089;stroke-linecap:round;stroke-linejoin:round;stroke-miterlimit:4;stroke-dasharray:none;stroke-dashoffset:0;stroke-opacity:1;paint-order:stroke fill markers"
             id="path915-0-0-8"
             d="m 130.98147,138.2252 a 0.2111735,0.2111735 0 0 1 -0.21074,0.21118 0.2111735,0.2111735 0 0 1 -0.21161,-0.21029 0.2111735,0.2111735 0 0 1 0.20985,-0.21205 0.2111735,0.2111735 0 0 1 0.21249,0.2094" />
          <path
             style="fill:#2e2e2e;fill-opacity:1;stroke:none;stroke-width:0.26458332px;stroke-linecap:butt;stroke-linejoin:miter;stroke-opacity:1"
             d="m 130.72483,138.35749 -0.23151,0.71934 h 0.55397 l -0.21497,-0.71934 z"
             id="path917-8-7-9" />
          <path
             style="fill:none;stroke:#2e2e2e;stroke-width:0.15000001;stroke-linecap:round;stroke-linejoin:round;stroke-miterlimit:4;stroke-dasharray:none;stroke-opacity:1"
             d="m 130.75743,138.18511 v -0.92959 l 1.65457,-0.19879"
             id="path919-7-4-5" />
        </g>
        <rect
           ry="0.076065488"
           y="137.2292"
           x="137.28215"
           height="0.53495663"
           width="0.31863537"
           id="rect971-4-4"
           style="opacity:1;fill:#f5dd28;fill-opacity:1;stroke:none;stroke-width:0.05824386;stroke-linecap:round;stroke-linejoin:round;stroke-miterlimit:4;stroke-dasharray:none;stroke-dashoffset:0;stroke-opacity:1;paint-order:stroke fill markers" />
      </g>
    </g>
  </g>
</svg>
