<?xml version="1.0" encoding="UTF-8" standalone="no"?>
<svg
   xmlns:dc="http://purl.org/dc/elements/1.1/"
   xmlns:cc="http://creativecommons.org/ns#"
   xmlns:rdf="http://www.w3.org/1999/02/22-rdf-syntax-ns#"
   xmlns:svg="http://www.w3.org/2000/svg"
   xmlns="http://www.w3.org/2000/svg"
   id="svg8"
   version="1.1"
   viewBox="0 0 7.5541611 7.5541611"
   height="7.5541611mm"
   width="7.5541611mm">
  <defs
     id="defs2">
    <clipPath
       id="clipPath994-8-8"
       clipPathUnits="userSpaceOnUse">
      <path
         style="fill:#83470e;fill-opacity:1;stroke:none;stroke-width:0.05;stroke-linecap:butt;stroke-linejoin:miter;stroke-miterlimit:4;stroke-dasharray:none;stroke-opacity:1"
         d="m 137.06656,136.6377 h 2.07533 c 0.0683,-0.005 0.12311,0.0114 0.1448,0.0836 v 1.70234 h -1.98862 c -0.23494,-0.009 -0.35871,-0.13886 -0.3638,-0.26872 v -1.40146 c 0.005,-0.0796 0.0506,-0.11608 0.13229,-0.11576 z"
         id="path996-8-3" />
    </clipPath>
    <pattern
       id="EMFhbasepattern"
       patternUnits="userSpaceOnUse"
       width="6"
       height="6"
       x="0"
       y="0" />
  </defs>
  <metadata
     id="metadata5">
    <rdf:RDF>
      <cc:Work
         rdf:about="">
        <dc:format>image/svg+xml</dc:format>
        <dc:type
           rdf:resource="http://purl.org/dc/dcmitype/StillImage" />
        <dc:title></dc:title>
      </cc:Work>
    </rdf:RDF>
  </metadata>
  <g
     transform="translate(-100.64884,-141.74052)"
     id="layer1">
    <g
       id="g2128"
       transform="matrix(0.18336805,0,0,0.18336805,-215.51408,40.029914)">
      <path
         style="opacity:1;fill:#ffffff;fill-opacity:1;stroke:none;stroke-width:0.24551478;stroke-linecap:round;stroke-linejoin:miter;stroke-miterlimit:4;stroke-dasharray:none;stroke-dashoffset:0;stroke-opacity:1;paint-order:stroke fill markers"
         id="path3517-5"
         d="m 1765.3952,575.27844 a 20.598356,20.598356 0 0 1 -20.5554,20.59831 20.598356,20.598356 0 0 1 -20.6411,-20.51238 20.598356,20.598356 0 0 1 20.4693,-20.68388 20.598356,20.598356 0 0 1 20.7265,20.42611" />
      <g
         transform="matrix(7.8324766,0,0,7.8324766,577.15079,-502.42585)"
         id="g1277-0-0">
        <path
           d="m 149.50722,137.45135 a 0.59342188,0.59342188 0 0 1 -0.59218,0.59343 0.59342188,0.59342188 0 0 1 -0.59465,-0.59095 0.59342188,0.59342188 0 0 1 0.5897,-0.59589 0.59342188,0.59342188 0 0 1 0.59711,0.58846"
           id="path1263-3-5"
           style="opacity:1;fill:#d3eeff;fill-opacity:1;stroke:none;stroke-width:0.05;stroke-linecap:square;stroke-linejoin:miter;stroke-miterlimit:4;stroke-dasharray:none;stroke-dashoffset:0;stroke-opacity:1;paint-order:stroke fill markers" />
        <path
           id="path1250-1-1"
           d="m 147.92867,136.56562 v 0.68989 l 0.58758,-0.75713 0.95298,0.10524 0.49988,0.5408 0.24263,-0.63434"
           style="fill:none;stroke:#fe76ca;stroke-width:0.08;stroke-linecap:butt;stroke-linejoin:miter;stroke-miterlimit:4;stroke-dasharray:none;stroke-opacity:1" />
        <path
           d="m 148.09822,136.46332 a 0.16662584,0.16662584 0 0 1 -0.16628,0.16662 0.16662584,0.16662584 0 0 1 -0.16697,-0.16593 0.16662584,0.16662584 0 0 1 0.16558,-0.16731 0.16662584,0.16662584 0 0 1 0.16766,0.16523"
           id="path1236-4-1"
           style="opacity:1;fill:#fe21a9;fill-opacity:1;stroke:none;stroke-width:0.10133333;stroke-linecap:square;stroke-linejoin:miter;stroke-miterlimit:4;stroke-dasharray:none;stroke-dashoffset:0;stroke-opacity:1;paint-order:stroke fill markers" />
        <path
           id="path1254-8-4"
           d="m 148.00468,137.24089 0.89744,0.43264 1.04068,-0.4648"
           style="fill:none;stroke:#fe76ca;stroke-width:0.08;stroke-linecap:butt;stroke-linejoin:miter;stroke-miterlimit:4;stroke-dasharray:none;stroke-opacity:1" />
        <path
           style="opacity:1;fill:#fe21a9;fill-opacity:1;stroke:none;stroke-width:0.10133333;stroke-linecap:square;stroke-linejoin:miter;stroke-miterlimit:4;stroke-dasharray:none;stroke-dashoffset:0;stroke-opacity:1;paint-order:stroke fill markers"
           id="path1238-8-5"
           d="m 148.09822,137.23213 a 0.16662584,0.16662584 0 0 1 -0.16628,0.16663 0.16662584,0.16662584 0 0 1 -0.16697,-0.16593 0.16662584,0.16662584 0 0 1 0.16558,-0.16732 0.16662584,0.16662584 0 0 1 0.16766,0.16523" />
        <path
           d="m 148.68872,136.46332 a 0.16662584,0.16662584 0 0 1 -0.16628,0.16662 0.16662584,0.16662584 0 0 1 -0.16697,-0.16593 0.16662584,0.16662584 0 0 1 0.16558,-0.16731 0.16662584,0.16662584 0 0 1 0.16766,0.16523"
           id="path1240-8-9"
           style="opacity:1;fill:#fe21a9;fill-opacity:1;stroke:none;stroke-width:0.10133333;stroke-linecap:square;stroke-linejoin:miter;stroke-miterlimit:4;stroke-dasharray:none;stroke-dashoffset:0;stroke-opacity:1;paint-order:stroke fill markers" />
        <path
           style="opacity:1;fill:#fe21a9;fill-opacity:1;stroke:none;stroke-width:0.10133333;stroke-linecap:square;stroke-linejoin:miter;stroke-miterlimit:4;stroke-dasharray:none;stroke-dashoffset:0;stroke-opacity:1;paint-order:stroke fill markers"
           id="path1242-8-2"
           d="m 149.67093,136.63579 a 0.16662584,0.16662584 0 0 1 -0.16628,0.16662 0.16662584,0.16662584 0 0 1 -0.16697,-0.16593 0.16662584,0.16662584 0 0 1 0.16558,-0.16731 0.16662584,0.16662584 0 0 1 0.16766,0.16523" />
        <path
           d="m 150.14742,137.14735 a 0.16662584,0.16662584 0 0 1 -0.16628,0.16663 0.16662584,0.16662584 0 0 1 -0.16698,-0.16593 0.16662584,0.16662584 0 0 1 0.16559,-0.16732 0.16662584,0.16662584 0 0 1 0.16766,0.16523"
           id="path1244-1-5"
           style="opacity:1;fill:#fe21a9;fill-opacity:1;stroke:none;stroke-width:0.10133333;stroke-linecap:square;stroke-linejoin:miter;stroke-miterlimit:4;stroke-dasharray:none;stroke-dashoffset:0;stroke-opacity:1;paint-order:stroke fill markers" />
        <path
           style="opacity:1;fill:#fe21a9;fill-opacity:1;stroke:none;stroke-width:0.10133333;stroke-linecap:square;stroke-linejoin:miter;stroke-miterlimit:4;stroke-dasharray:none;stroke-dashoffset:0;stroke-opacity:1;paint-order:stroke fill markers"
           id="path1246-7-9"
           d="m 149.07458,137.61215 a 0.16662584,0.16662584 0 0 1 -0.16627,0.16663 0.16662584,0.16662584 0 0 1 -0.16698,-0.16593 0.16662584,0.16662584 0 0 1 0.16559,-0.16732 0.16662584,0.16662584 0 0 1 0.16766,0.16523" />
        <path
           id="path1256-8-3"
           transform="scale(0.26458333)"
           d="m 562.79102,517.03516 a 2.4399342,2.4399342 0 0 0 -2.42579,2.45117 2.4399342,2.4399342 0 0 0 2.44532,2.42969 2.4399342,2.4399342 0 0 0 2.43554,-2.44141 v -0.0195 a 2.4399342,2.4399342 0 0 0 -2.45507,-2.41992 z m 0.002,0.34179 a 2.0981575,2.0981575 0 0 1 2.11133,2.08008 v 0.0176 a 2.0981575,2.0981575 0 0 1 -2.09375,2.09961 2.0981575,2.0981575 0 0 1 -2.10157,-2.08984 2.0981575,2.0981575 0 0 1 2.08399,-2.10743 z"
           style="opacity:1;fill:#797979;fill-opacity:1;stroke:none;stroke-width:0.29703385;stroke-linecap:square;stroke-linejoin:miter;stroke-miterlimit:4;stroke-dasharray:none;stroke-dashoffset:0;stroke-opacity:1;paint-order:stroke fill markers" />
        <path
           d="m 150.39005,136.46623 a 0.16662584,0.16662584 0 0 1 -0.16628,0.16663 0.16662584,0.16662584 0 0 1 -0.16698,-0.16593 0.16662584,0.16662584 0 0 1 0.16559,-0.16732 0.16662584,0.16662584 0 0 1 0.16766,0.16523"
           id="path1248-8-3"
           style="opacity:1;fill:#fe21a9;fill-opacity:1;stroke:none;stroke-width:0.10133333;stroke-linecap:square;stroke-linejoin:miter;stroke-miterlimit:4;stroke-dasharray:none;stroke-dashoffset:0;stroke-opacity:1;paint-order:stroke fill markers" />
        <path
           id="path1260-6-5"
           d="m 149.36984,137.78754 0.17832,0.1637 0.0789,-0.0789 0.66211,0.66212 c 0.19114,0.19114 -0.0987,0.48889 -0.29379,0.29379 l -0.6665,-0.6665 0.0804,-0.0804 -0.17394,-0.17101"
           style="fill:#797979;fill-opacity:1;stroke:none;stroke-width:0.05;stroke-linecap:butt;stroke-linejoin:miter;stroke-miterlimit:4;stroke-dasharray:none;stroke-opacity:1" />
      </g>
    </g>
  </g>
</svg>
