<?xml version="1.0" encoding="UTF-8" standalone="no"?>
<svg
   xmlns:dc="http://purl.org/dc/elements/1.1/"
   xmlns:cc="http://creativecommons.org/ns#"
   xmlns:rdf="http://www.w3.org/1999/02/22-rdf-syntax-ns#"
   xmlns:svg="http://www.w3.org/2000/svg"
   xmlns="http://www.w3.org/2000/svg"
   id="svg8"
   version="1.1"
   viewBox="0 0 97.607559 211.08357"
   height="211.08357mm"
   width="97.607559mm">
  <defs
     id="defs2" />
  <metadata
     id="metadata5">
    <rdf:RDF>
      <cc:Work
         rdf:about="">
        <dc:format>image/svg+xml</dc:format>
        <dc:type
           rdf:resource="http://purl.org/dc/dcmitype/StillImage" />
        <dc:title></dc:title>
      </cc:Work>
    </rdf:RDF>
  </metadata>
  <g
     transform="translate(-89.535509,-59.922503)"
     id="layer1">
    <g
       id="layer1-1"
       transform="matrix(6.3645547,0,0,6.3645547,-680.6452,-548.57555)">
      <path
         style="fill:#fad0ae;fill-opacity:1;stroke:none;stroke-width:0.1;stroke-linecap:butt;stroke-linejoin:miter;stroke-miterlimit:4;stroke-dasharray:none;stroke-opacity:1"
         d="m 129.90566,102.81474 0.23624,-0.54334 c -3.33182,-0.60414 -1.44523,-7.098834 1.28037,-6.498967 0.86816,0.03244 2.59814,1.608653 2.32908,3.307648 0.62841,-0.64947 0.51105,1.591819 -0.58565,1.419559 -0.67189,1.24087 -1.25532,1.50858 -1.84263,1.81901 l 0.0945,0.61421 c -0.30327,0.63716 -1.36815,0.51023 -1.51191,-0.11812 z"
         id="path65"
         clip-path="none" />
      <path
         style="fill:#a57c40;fill-opacity:1;stroke:none;stroke-width:0.065;stroke-linecap:butt;stroke-linejoin:miter;stroke-miterlimit:4;stroke-dasharray:none;stroke-opacity:1"
         d="m 129.26953,96.640208 c 0,0 1.25875,-1.108942 2.39604,-1.028732 2.88234,0.660155 2.10921,3.78387 2.23246,3.376255 -0.58278,0.277651 -0.67797,0.450665 -0.87033,0.756333 0.0112,-1.093383 -0.42508,-1.992774 -0.7157,-2.655012 -1.35411,1.367469 -5.2507,-0.208761 -3.04247,-0.448844 z"
         id="path872" />
      <path
         style="fill:#ffffff;fill-opacity:1;stroke:none;stroke-width:0.065;stroke-linecap:butt;stroke-linejoin:miter;stroke-miterlimit:4;stroke-dasharray:none;stroke-opacity:1"
         d="m 131.60279,100.74055 c -1.7631,-0.0816 -1.77943,-0.0816 -1.77943,-0.0816 0.44475,0.94957 1.54576,0.90276 1.77943,0.0816 z"
         id="path874-2" />
      <ellipse
         style="opacity:1;fill:#000000;fill-opacity:1;stroke:none;stroke-width:0.05531259;stroke-linecap:round;stroke-linejoin:round;stroke-miterlimit:4;stroke-dasharray:none;stroke-dashoffset:0;stroke-opacity:1;paint-order:stroke fill markers"
         id="path876-8"
         cx="131.63377"
         cy="99.042755"
         rx="0.17957526"
         ry="0.3428255" />
      <ellipse
         ry="0.3428255"
         rx="0.17957526"
         cy="99.042755"
         cx="129.63351"
         id="ellipse878"
         style="opacity:1;fill:#000000;fill-opacity:1;stroke:none;stroke-width:0.05531259;stroke-linecap:round;stroke-linejoin:round;stroke-miterlimit:4;stroke-dasharray:none;stroke-dashoffset:0;stroke-opacity:1;paint-order:stroke fill markers" />
      <path
         id="path912"
         d="m 129.85023,127.8414 -0.88867,0.27964 -0.0936,-0.22462 c -1.4314,0.64829 -3.1226,0.76745 -3.26907,0.25343 -0.14647,-0.51402 2.18277,-0.73866 2.77124,-1.9062 0.39269,0.006 0.79987,-0.0526 1.17323,0.0407 0.17683,0.35962 0.37702,1.34498 0.3069,1.55705 z"
         style="fill:#333333;stroke:none;stroke-width:0.065;stroke-linecap:butt;stroke-linejoin:miter;stroke-miterlimit:4;stroke-dasharray:none;stroke-opacity:1" />
      <path
         style="fill:#304e84;fill-opacity:1;stroke:none;stroke-width:0.065;stroke-linecap:butt;stroke-linejoin:miter;stroke-miterlimit:4;stroke-dasharray:none;stroke-opacity:1"
         d="m 133.21459,113.34974 -5.78145,-0.0716 c -0.2729,4.58706 0.24992,9.22424 0.93699,12.96551 0.33687,0.0306 0.69525,-0.0122 1.17323,0.0407 l 0.4332,-10.38223 c 0.79497,3.43685 1.06076,7.10055 1.58107,10.65511 0.4985,0.0846 0.87215,0.0858 1.19772,0.0407 z"
         id="path897" />
      <path
         id="path963"
         d="m 127.59638,105.49508 c 0.59341,-0.21723 -0.63473,2.86344 -1.80646,2.94546 -1.23487,0.61399 -2.98368,-1.53992 -3.43471,-2.25429 -0.47144,-0.33381 -0.44842,-0.0827 -1.07439,-0.10545 -0.37691,-0.12387 -0.30528,-0.87821 -0.11052,-1.13362 0.15301,-0.20055 0.7407,-0.0786 0.7407,-0.0786 0,0 -0.12081,-0.90602 0.18725,-0.98654 0.19582,-0.0512 0.11512,0.88798 0.31329,1.14741 0.59888,0.7839 2.22215,2.16061 2.90357,2.05433 0.17764,-1.30787 0.52826,-1.68649 0.93222,-1.82952 z"
         style="fill:#fad0ae;fill-opacity:1;stroke:none;stroke-width:0.08090041;stroke-linecap:butt;stroke-linejoin:miter;stroke-miterlimit:4;stroke-dasharray:none;stroke-opacity:1" />
      <path
         style="fill:#10d460;fill-opacity:1;stroke:none;stroke-width:0.065;stroke-linecap:butt;stroke-linejoin:miter;stroke-miterlimit:4;stroke-dasharray:none;stroke-opacity:1"
         d="m 131.41757,102.93286 c -0.65326,0.46176 -1.09481,0.45862 -1.51191,-0.11812 -2.88491,-0.0911 -4.25657,2.22021 -4.74832,3.82701 l 1.83553,0.50996 0.22739,-0.64806 c 0.45189,2.3534 0.32344,4.56171 0.21288,6.77449 l 5.78145,0.0716 c -0.0116,-2.48354 -0.53009,-5.32907 0.37634,-7.15684 l 0.92132,0.94494 1.25069,-1.52727 c -1.24477,-1.13246 -2.24615,-2.91864 -4.34537,-2.67771 z"
         id="path899-2" />
      <path
         style="fill:#fad0ae;fill-opacity:1;stroke:none;stroke-width:0.065;stroke-linecap:butt;stroke-linejoin:miter;stroke-miterlimit:4;stroke-dasharray:none;stroke-opacity:1"
         d="m 135.02623,105.41609 c 0.0981,-0.50941 1.67567,1.57291 1.24721,2.44323 -0.98265,0.84654 -3.25049,1.37307 -3.76882,0.93612 l -0.29365,-0.44723 c 0.39635,-0.48149 0.52984,0.15094 0.76484,0.22488 0.31504,-0.36057 1.67037,-0.94156 2.1318,-1.61985 -0.0669,0.79432 -0.87167,-0.32125 -0.80161,-0.66614 z"
         id="path918" />
      <path
         style="fill:#10d460;fill-opacity:1;stroke:none;stroke-width:0.065;stroke-linecap:butt;stroke-linejoin:miter;stroke-miterlimit:4;stroke-dasharray:none;stroke-opacity:1"
         d="m 133.59093,106.1929 0.92132,0.94494 1.25069,-1.52727 -1.9041,-1.89553 z"
         id="path920" />
      <path
         style="fill:#c9c9c9;fill-opacity:1;stroke:none;stroke-width:0.12919718;stroke-linecap:butt;stroke-linejoin:miter;stroke-miterlimit:4;stroke-dasharray:none;stroke-opacity:1"
         d="m 131.94512,110.08329 2.03843,-1.64801 c 0.0451,-0.0527 -0.0224,-0.0758 -0.0851,-0.0697 h -5.58538 l -1.8395,1.66814 z"
         id="path926" />
      <path
         style="fill:#fad0ae;fill-opacity:1;stroke:none;stroke-width:0.00148059;stroke-linecap:butt;stroke-linejoin:miter;stroke-miterlimit:4;stroke-dasharray:none;stroke-opacity:1"
         d="m 132.6067,108.35221 c -0.42649,0.47223 -0.91738,0.30876 -0.39572,-0.004 z"
         id="path947-7" />
      <rect
         style="opacity:1;fill:#ebebeb;fill-opacity:1;stroke:none;stroke-width:0.06956504;stroke-linecap:round;stroke-linejoin:round;stroke-miterlimit:4;stroke-dasharray:none;stroke-dashoffset:0;stroke-opacity:1;paint-order:stroke fill markers"
         id="rect922"
         width="5.5788889"
         height="3.7784774"
         x="110.34373"
         y="107.53555"
         ry="0.1634918"
         transform="matrix(1,0,0.14400509,0.98957695,0,0)" />
      <g
         id="g945"
         transform="matrix(0.04001218,0,0,0.04001218,121.79375,103.98816)">
        <path
           id="path939"
           d="m 183.68698,112.45312 c 0.39509,6.63752 -11.27867,9.5979 -12.63386,0 0.0523,-1.82506 0.50742,-3.68854 1.43579,-4.70702 0.92836,-1.01848 1.30515,-1.87303 1.36323,-2.83939 0.94215,-6.900927 7.76486,-4.5016 7.24969,0 -0.82989,1.15383 -2.69723,5.93028 2.58515,7.54641 z"
           style="fill:#9e9e9e;fill-opacity:1;stroke:none;stroke-width:0.16500001;stroke-linecap:butt;stroke-linejoin:miter;stroke-miterlimit:4;stroke-dasharray:none;stroke-opacity:1" />
        <path
           id="path941"
           d="m 177.66771,100.11693 c -0.004,-2.340746 1.14528,-3.697632 2.97656,-3.968753 0.14933,1.605941 -0.86779,3.951293 -2.97656,3.968753 z"
           style="fill:#9e9e9e;fill-opacity:1;stroke:none;stroke-width:0.16500001;stroke-linecap:butt;stroke-linejoin:miter;stroke-miterlimit:4;stroke-dasharray:none;stroke-opacity:1" />
      </g>
      <path
         style="fill:#333333;stroke:none;stroke-width:0.065;stroke-linecap:butt;stroke-linejoin:miter;stroke-miterlimit:4;stroke-dasharray:none;stroke-opacity:1"
         d="m 133.05134,128.14407 -0.88867,0.27964 -0.0936,-0.22462 c -1.4314,0.64829 -3.1226,0.76745 -3.26907,0.25343 -0.14647,-0.51402 2.18277,-0.73866 2.77124,-1.9062 0.39269,0.006 0.79987,-0.0526 1.17323,0.0407 0.17683,0.35962 0.37702,1.34498 0.3069,1.55705 z"
         id="path671" />
    </g>
  </g>
</svg>
